# xmcd
#
# Track frame offsets:
#	150
#	14848
#	28559
#	45867
#	61778
#	85345
#
# Disc length: 1380 seconds
#
# Revision: 1
# Processed by: cddbd v1.4PL0 Copyright (c) Steve Scherf et al.
# Submitted via: audiograbber 1.80.04
#
DISCID=3f056206
DTITLE=Family Tradition - Family Tradition
DYEAR=2002
DGENRE=Country
TTITLE0=Thousandaire
TTITLE1=Then There's Me
TTITLE2=You'll Love Again
TTITLE3=Shoulda Seen It Comin'
TTITLE4=Man I Used to Be
TTITLE5=Family Tradition
EXTD=
EXTT0=
EXTT1=
EXTT2=
EXTT3=
EXTT4=
EXTT5=
PLAYORDER=
